<svg width="123" height="130" viewBox="0 0 123 130" fill="none" xmlns="http://www.w3.org/2000/svg">
<g clip-path="url(#clip0_253_598)">
<path d="M24.725 28.0565C32.6246 28.0565 39.0515 21.7634 39.0515 14.0282C39.0515 6.29304 32.6246 0 24.725 0C16.8253 0 10.3984 6.29304 10.3984 14.0282C10.3984 21.7634 16.8253 28.0565 24.725 28.0565ZM24.725 4.68232C29.985 4.68232 34.2696 8.87768 34.2696 14.0282C34.2696 19.1788 29.985 23.3741 24.725 23.3741C19.4649 23.3741 15.1803 19.1788 15.1803 14.0282C15.1803 8.87768 19.4649 4.68232 24.725 4.68232Z" fill="#EEEEEE"/>
<path d="M80.1077 50.2973H44.1767C44.0906 50.1943 44.0045 50.1007 43.9089 49.9977C42.3213 48.1809 40.1503 45.6993 38.4193 41.1481C38.2567 40.6705 38.1037 40.1648 37.9602 39.6591C37.396 37.73 36.6978 35.3326 34.7755 33.3099C32.3846 30.7908 28.6547 29.3486 24.5614 29.3486C22.7156 29.3486 20.975 29.6483 19.55 30.2289C17.6086 31.0062 16.0114 32.1112 14.8064 33.4597H9.86191C5.00352 33.4597 0.728516 37.9079 0.728516 42.9648V61.6941C0.728516 66.4139 4.64966 69.9818 9.86191 69.9818H12.205V73.9337C12.205 75.3665 12.7119 76.7806 13.1997 78.1384C13.6492 79.3839 14.1178 80.6763 14.1178 81.8094V120.111C14.1178 125.57 18.6223 130.019 24.1597 130.019C29.6972 130.019 34.2017 125.58 34.2017 120.111V82.5117C34.2017 82.2963 34.3834 81.6314 34.5077 81.1539C34.7946 80.0301 35.1581 78.6348 35.1581 77.2301V61.2633C37.5012 62.9302 40.1886 64.3537 42.3978 64.3537H57.7572C61.7645 64.3537 65.0257 61.2072 65.0257 57.3302C65.0257 56.5061 64.8727 55.7195 64.6049 54.989H80.1173C81.4371 54.989 82.5083 53.9402 82.5083 52.6479C82.5083 51.3555 81.4371 50.3067 80.1173 50.3067L80.1077 50.2973ZM9.86191 65.2808C7.76745 65.2808 5.5104 64.157 5.5104 61.6754V42.9461C5.5104 40.5113 7.66224 38.1233 9.86191 38.1233H12.4441C12.2911 38.835 12.2146 39.5842 12.2146 40.3521V65.2808H9.87147H9.86191ZM60.2438 57.3208C60.2438 58.6319 59.1535 59.662 57.7572 59.662H42.3978C41.0972 59.662 37.4342 57.4613 34.4695 54.5208C33.7904 53.8465 32.7576 53.6405 31.8586 53.9964C30.9596 54.3522 30.3762 55.2138 30.3762 56.1596V77.202C30.3762 78.0261 30.1084 79.0655 29.8693 79.9739C29.6302 80.9104 29.4198 81.7157 29.4198 82.4743V120.083C29.4198 122.958 27.0576 125.308 24.1597 125.308C21.2619 125.308 18.8997 122.967 18.8997 120.083V81.7813C18.8997 79.8522 18.2685 78.101 17.7138 76.5558C17.3599 75.5632 16.9869 74.533 16.9869 73.9056V40.3427C16.9869 37.6551 18.4597 35.6979 21.3576 34.5366C22.1992 34.1995 23.3373 34.0122 24.5518 34.0122C27.2871 34.0122 29.7928 34.9393 31.2656 36.4845C32.4133 37.6925 32.8723 39.2658 33.3601 40.9327C33.5322 41.5227 33.7044 42.1033 33.9148 42.712C35.9614 48.0967 38.5532 51.0652 40.2747 53.0318C40.6094 53.4158 40.9059 53.7529 41.1545 54.0713C41.604 54.6425 42.3022 54.9703 43.0386 54.9703H57.7477C59.144 54.9703 60.2343 56.0004 60.2343 57.3115L60.2438 57.3208Z" fill="#EEEEEE"/>
<path d="M100.67 52.639C100.67 51.3467 99.5987 50.2979 98.2789 50.2979H91.5843C90.2645 50.2979 89.1934 51.3467 89.1934 52.639C89.1934 53.9313 90.2645 54.9802 91.5843 54.9802H98.2789C99.5987 54.9802 100.67 53.9313 100.67 52.639Z" fill="#EEEEEE"/>
<path d="M102.104 45.6149H108.798C110.118 45.6149 111.189 44.5661 111.189 43.2738C111.189 41.9815 110.118 40.9326 108.798 40.9326H102.104C100.784 40.9326 99.7129 41.9815 99.7129 43.2738C99.7129 44.5661 100.784 45.6149 102.104 45.6149Z" fill="#EEEEEE"/>
<path d="M108.798 59.6621H102.104C100.784 59.6621 99.7129 60.7109 99.7129 62.0033C99.7129 63.2956 100.784 64.3444 102.104 64.3444H108.798C110.118 64.3444 111.189 63.2956 111.189 62.0033C111.189 60.7109 110.118 59.6621 108.798 59.6621Z" fill="#EEEEEE"/>
<path d="M120.275 50.2979H113.58C112.261 50.2979 111.189 51.3467 111.189 52.639C111.189 53.9313 112.261 54.9802 113.58 54.9802H120.275C121.595 54.9802 122.666 53.9313 122.666 52.639C122.666 51.3467 121.595 50.2979 120.275 50.2979Z" fill="#EEEEEE"/>
<path d="M113.58 36.2507H120.275C121.595 36.2507 122.666 35.2018 122.666 33.9095C122.666 32.6172 121.595 31.5684 120.275 31.5684H113.58C112.261 31.5684 111.189 32.6172 111.189 33.9095C111.189 35.2018 112.261 36.2507 113.58 36.2507Z" fill="#EEEEEE"/>
<path d="M120.275 69.0264H113.58C112.261 69.0264 111.189 70.0752 111.189 71.3675C111.189 72.6598 112.261 73.7087 113.58 73.7087H120.275C121.595 73.7087 122.666 72.6598 122.666 71.3675C122.666 70.0752 121.595 69.0264 120.275 69.0264Z" fill="#EEEEEE"/>
</g>
<defs>
<clipPath id="clip0_253_598">
<rect width="121.938" height="130" fill="white" transform="translate(0.728516)"/>
</clipPath>
</defs>
</svg>
