<svg width="132" height="130" viewBox="0 0 132 130" fill="none" xmlns="http://www.w3.org/2000/svg">
<g clip-path="url(#clip0_253_874)">
<path d="M50.4115 78.6555C48.9367 78.6555 47.735 77.5084 47.6804 76.0336C47.6804 75.9134 47.1014 63.7983 36.4938 53.1908C25.8098 42.5067 13.6619 42.1462 13.5417 42.1462C12.056 42.1134 10.8762 40.9118 10.8652 39.4261C10.8652 37.9403 12.0341 36.7277 13.5089 36.684C13.6291 36.684 25.9627 36.105 36.5812 25.4975C47.1778 14.9008 47.582 2.73109 47.582 2.61092C47.6148 1.13613 48.8165 0 50.3022 0C51.777 0 52.9896 1.10336 53.0333 2.57815C53.0333 2.6874 53.6123 14.9118 64.2199 25.5303C74.9148 36.2252 87.0736 36.695 87.2047 36.7059C88.6904 36.7496 89.8594 37.9622 89.8484 39.4479C89.8484 40.9336 88.6468 42.1353 87.161 42.1571C87.0518 42.1571 74.7291 42.5613 64.1325 53.158C53.5358 63.7546 53.1316 75.8807 53.1316 76.0008C53.0989 77.4756 51.8862 78.6664 50.4115 78.6664V78.6555ZM25.2963 39.3824C29.8846 41.1958 35.2594 44.2437 40.3501 49.3345C45.4409 54.4252 48.4997 59.7672 50.3459 64.3227C52.1594 59.7454 55.1854 54.3815 60.2762 49.2908C65.3778 44.1891 70.7745 41.163 75.3846 39.3496C70.8073 37.5034 65.4434 34.4445 60.3636 29.3647C55.2728 24.274 52.214 18.8992 50.3678 14.3109C48.5543 18.8992 45.5283 24.274 40.4375 29.3647C35.3249 34.4773 29.9064 37.5471 25.2854 39.3824H25.2963Z" fill="#EEEEEE"/>
<path d="M99.5707 124.538C98.0959 124.538 96.8942 123.271 96.8396 121.796C96.8396 121.698 96.3699 112.15 88.0455 103.826C79.7321 95.5121 70.1514 95.1188 70.0531 95.1188C68.5783 95.0751 67.3984 93.8516 67.3984 92.3768C67.3984 90.902 68.5673 89.6785 70.0421 89.6348C70.1295 89.6348 79.8085 89.165 88.1329 80.8407C96.5228 72.4507 96.7741 62.9028 96.7741 62.8045C96.7959 61.3188 97.9976 60.0625 99.4833 60.0625H99.5052C100.98 60.0625 102.193 61.286 102.236 62.7608C102.236 62.8482 102.706 72.4726 111.03 80.797C119.355 89.1213 128.957 89.602 129.056 89.602C130.53 89.6566 131.699 90.8911 131.688 92.3659C131.667 93.8407 130.487 95.0423 129.012 95.0751C128.924 95.0751 119.267 95.4138 110.965 103.716C102.575 112.106 102.324 121.632 102.324 121.72C102.302 123.205 101.1 124.505 99.6144 124.505H99.5926L99.5707 124.538ZM80.89 92.344C84.3421 93.8625 88.2203 96.2222 91.9127 99.9146C95.5942 103.607 97.9758 107.463 99.5161 110.894C101.024 107.452 103.383 103.574 107.087 99.8818C110.79 96.1785 114.69 93.8188 118.153 92.3112C114.712 90.7709 110.834 88.4003 107.152 84.7188C103.46 81.0264 101.078 77.1482 99.5489 73.6961C98.0413 77.1482 95.6816 81.0264 91.9892 84.7188C88.2749 88.4331 84.364 90.8146 80.89 92.3549V92.344Z" fill="#EEEEEE"/>
<path d="M26.6942 130C25.2194 130 24.0177 129.027 23.9631 127.553C23.9631 127.4 23.548 120.135 17.0917 113.679C10.6354 107.222 3.14125 106.938 3.06478 106.938C1.58999 106.895 0.410156 105.704 0.410156 104.229C0.410156 102.754 1.57906 101.553 3.05385 101.509C3.1194 101.509 10.6572 101.137 17.1572 94.6375C23.7118 88.0829 23.9085 80.5123 23.9085 80.4358C23.9303 78.9501 25.132 77.5518 26.6177 77.5518H26.6396C28.1144 77.5518 29.327 78.9282 29.3707 80.403C29.3707 80.4686 29.753 88.0501 36.2421 94.5501C42.7312 101.039 50.2253 101.476 50.3017 101.476C51.7765 101.531 52.9454 102.787 52.9236 104.262C52.9017 105.737 51.7219 106.949 50.2471 106.971C50.1816 106.971 42.6656 107.255 36.1875 113.733C29.7093 120.211 29.4362 127.443 29.4362 127.509C29.3925 128.984 28.1908 130 26.716 130H26.6942ZM13.0387 104.24C15.5732 105.474 18.3261 107.288 20.9589 109.91C23.5807 112.532 25.3942 115.274 26.6505 117.797C27.8849 115.263 29.6875 112.521 32.3202 109.877C34.953 107.244 37.7278 105.431 40.2732 104.196C37.7497 102.951 34.9967 101.137 32.3749 98.5156C29.7421 95.8829 27.9286 93.1299 26.6833 90.5955C25.4488 93.1299 23.6463 95.8829 21.0135 98.5156C18.3698 101.159 15.595 102.984 13.0387 104.229V104.24Z" fill="#EEEEEE"/>
</g>
<defs>
<clipPath id="clip0_253_874">
<rect width="131.256" height="130" fill="white" transform="translate(0.410156)"/>
</clipPath>
</defs>
</svg>
