<svg width="138" height="130" viewBox="0 0 138 130" fill="none" xmlns="http://www.w3.org/2000/svg">
<g clip-path="url(#clip0_253_833)">
<path d="M106.8 130C105.373 130 104.21 128.901 104.158 127.484C104.158 127.357 103.714 119.016 96.398 111.701C89.0718 104.375 80.6144 104.047 80.5299 104.047C79.1027 104.005 77.9609 102.842 77.9609 101.415C77.9609 99.9873 79.0921 98.8139 80.5193 98.7716C80.5933 98.7716 89.1246 98.3593 96.472 91.012C103.798 83.6858 104.094 75.4082 104.105 75.3236C104.136 73.8964 105.31 72.9238 106.737 72.9238C108.164 72.9238 109.338 73.8753 109.38 75.3025C109.38 75.3765 109.803 83.7598 117.14 91.1071C124.561 98.5284 132.944 98.8245 133.029 98.8245C134.467 98.8667 135.598 100.03 135.587 101.467C135.587 102.905 134.424 104.057 132.987 104.079C132.913 104.079 124.402 104.375 117.066 111.701C109.665 119.101 109.443 127.368 109.433 127.453C109.412 128.89 108.249 130.021 106.811 130.021H106.79L106.8 130ZM90.6892 101.383C93.6705 102.747 96.99 104.819 100.14 107.98C103.291 111.14 105.373 114.428 106.758 117.388C108.122 114.418 110.183 111.109 113.344 107.948C116.505 104.787 119.835 102.715 122.838 101.351C119.867 99.9768 116.558 97.8836 113.418 94.7438C110.268 91.5934 108.175 88.2739 106.8 85.2927C105.437 88.2739 103.375 91.5934 100.214 94.7438C97.0428 97.9153 93.7022 100.008 90.6998 101.383H90.6892Z" fill="#EEEEEE"/>
<path d="M62.8322 76.0845C61.4156 76.0845 60.2421 75.1648 60.1893 73.7376C60.1787 73.4944 59.8827 68.4729 55.2417 63.8214C50.6008 59.1804 45.2621 58.9901 45.2092 58.9901C43.7715 58.9584 42.6297 57.8166 42.6191 56.3895C42.6191 54.9517 43.7503 53.7888 45.1775 53.7465C45.3784 53.7465 50.6219 53.4611 55.284 48.8096C59.9461 44.158 60.147 38.703 60.147 38.6502C60.1681 37.2124 61.331 35.9121 62.7688 35.9121H62.7899C64.2171 35.9121 65.3905 37.1913 65.4328 38.6185C65.4328 38.8193 65.7183 44.0946 70.3804 48.7567C75.0425 53.4188 80.3918 53.736 80.4446 53.736C81.8824 53.7783 83.0135 54.9834 83.003 56.4106C83.003 57.8484 81.8401 59.0218 80.4023 59.043C80.2015 59.043 74.9791 59.265 70.3381 63.9059C65.6971 68.5469 65.4751 73.6319 65.4751 73.6847C65.454 75.1225 64.2911 76.0845 62.8533 76.0845H62.8322ZM53.952 56.3895C55.6012 57.2986 57.3244 58.5355 58.9841 60.1953C60.6439 61.855 61.8808 63.5676 62.7899 65.2062C63.6991 63.5571 64.936 61.8339 66.5957 60.1741C68.266 58.5038 69.9998 57.2775 71.6596 56.3683C70.0209 55.4486 68.2978 54.2117 66.6486 52.5625C64.9888 50.9028 63.7519 49.1796 62.8322 47.5304C61.923 49.1796 60.6861 50.9028 59.0264 52.5625C57.3561 54.2328 55.6117 55.4803 53.952 56.4V56.3895Z" fill="#EEEEEE"/>
<path d="M27.1859 31.1548C25.727 31.1548 24.543 29.9708 24.543 28.5119V13.183C24.543 11.7241 25.727 10.54 27.1859 10.54H39.8719C41.3308 10.54 42.5148 11.7241 42.5148 13.183V17.9402C42.5148 19.3991 41.3308 20.5831 39.8719 20.5831C38.413 20.5831 37.229 19.3991 37.229 17.9402V15.8259H29.8288V28.5119C29.8288 29.9708 28.6448 31.1548 27.1859 31.1548Z" fill="#EEEEEE"/>
<path d="M89.0287 116.257H17.6698C16.2109 116.257 15.0269 115.073 15.0269 113.614V61.2838H2.75315C1.64312 61.2838 0.649382 60.5966 0.268802 59.55C-0.111779 58.514 0.1948 57.3405 1.04053 56.6217L67.0078 0.623443C67.991 -0.21172 69.4393 -0.21172 70.4331 0.623443L136.4 56.6217C137.246 57.3405 137.553 58.5034 137.172 59.55C136.792 60.586 135.798 61.2838 134.688 61.2838H121.79V84.5415C121.79 86.0004 120.606 87.1844 119.147 87.1844C117.688 87.1844 116.504 86.0004 116.504 84.5415V58.6409C116.504 57.182 117.688 55.9979 119.147 55.9979H127.488L68.7205 6.11015L9.95247 55.9979H17.6698C19.1287 55.9979 20.3127 57.182 20.3127 58.6409V110.971H89.0287C90.4876 110.971 91.6716 112.155 91.6716 113.614C91.6716 115.073 90.4876 116.257 89.0287 116.257Z" fill="#EEEEEE"/>
</g>
<defs>
<clipPath id="clip0_253_833">
<rect width="137.22" height="130" fill="white" transform="translate(0.111328)"/>
</clipPath>
</defs>
</svg>
